MoBL_ARMS_Upper_Limb_Model_OpenSim_states
version=1
nRows=11
nColumns=55
inDegrees=yes

# SIMM Motion File Header:
name MoBL_ARMS_Upper_Limb_Model_OpenSim_states
datacolumns 55
datarows 11
otherdata 1
range 0.07794131 0.09400106
endheader
time	sternoclavicular_r2	sternoclavicular_r3	unrotscap_r3	unrotscap_r2	acromioclavicular_r2	acromioclavicular_r3	acromioclavicular_r1	unrothum_r1	unrothum_r3	unrothum_r2	elv_angle	shoulder_elv	shoulder1_r2	shoulder_rot	elbow_flexion	pro_sup	deviation	flexion	wrist_hand_r1	wrist_hand_r3	sternoclavicular_r2_u	sternoclavicular_r3_u	unrotscap_r3_u	unrotscap_r2_u	acromioclavicular_r2_u	acromioclavicular_r3_u	acromioclavicular_r1_u	unrothum_r1_u	unrothum_r3_u	unrothum_r2_u	elv_angle_u	shoulder_elv_u	shoulder1_r2_u	shoulder_rot_u	elbow_flexion_u	pro_sup_u	deviation_u	flexion_u	wrist_hand_r1_u	wrist_hand_r3_u	SUP.activation	SUP.fiber_length	ECRL.activation	ECRL.fiber_length	ECRB.activation	ECRB.fiber_length	ECU.activation	ECU.fiber_length	FCR.activation	FCR.fiber_length	FCU.activation	FCU.fiber_length	PQ.activation	PQ.fiber_length
      0.07794131	     -4.84001085	      2.05000016	     -2.05000016	      4.84001085	     -0.98000374	      7.92004553	      3.56000596	     -3.56000596	     -7.92004553	      0.98000374	    -50.00000000	     20.00000000	     50.00000000	     20.00000000	     90.00021046	     64.86589488	     -0.00000000	      8.18117802	      0.00000000	      4.09058901	      0.00000000	      0.00000000	      0.00000000	     -0.00000000	     -0.00000000	     -0.00000000	      0.00000000	      0.00000000	      0.00000000	     -0.00000000	     -0.00000000	      0.00000000	      0.00000000	      0.00000000	     -0.00000000	    -86.00822609	     -0.00000000	     91.14488653	      0.00000000	     45.57244326	      0.02684013	      0.04099695	      0.02684013	      0.06644224	      0.02684013	      0.06291595	      0.02684013	      0.07148287	      0.02684013	      0.04915755	      0.02684013	      0.03406126	      0.02684013	      0.01883727
      0.07979013	     -4.84001085	      2.05000016	     -2.05000016	      4.84001085	     -0.98000374	      7.92004553	      3.56000596	     -3.56000596	     -7.92004553	      0.98000374	    -50.00000000	     20.00000000	     50.00000000	     20.00000000	     90.00021046	     64.70857179	     -0.00000000	      8.35001493	      0.00000000	      4.17500747	      0.00000000	      0.00000000	      0.00000000	     -0.00000000	     -0.00000000	     -0.00000000	      0.00000000	      0.00000000	      0.00000000	     -0.00000000	     -0.00000000	      0.00000000	      0.00000000	      0.00000000	     -0.00000000	    -84.19893119	     -0.00000000	     91.47441773	      0.00000000	     45.73720886	      0.02650721	      0.04098065	      0.02650721	      0.06645965	      0.02650721	      0.06295668	      0.02650721	      0.07149599	      0.02650721	      0.04911461	      0.02650721	      0.03401954	      0.02650721	      0.01885016
      0.08103971	     -4.84001085	      2.05000016	     -2.05000016	      4.84001085	     -0.98000374	      7.92004553	      3.56000596	     -3.56000596	     -7.92004553	      0.98000374	    -50.00000000	     20.00000000	     50.00000000	     20.00000000	     90.00021046	     64.60410731	     -0.00000000	      8.46441274	      0.00000000	      4.23220637	      0.00000000	      0.00000000	      0.00000000	     -0.00000000	     -0.00000000	     -0.00000000	      0.00000000	      0.00000000	      0.00000000	     -0.00000000	     -0.00000000	      0.00000000	      0.00000000	      0.00000000	     -0.00000000	    -83.00598864	     -0.00000000	     91.61435250	      0.00000000	     45.80717625	      0.02628610	      0.04096983	      0.02628610	      0.06647218	      0.02628610	      0.06298433	      0.02628610	      0.07150517	      0.02628610	      0.04908539	      0.02628610	      0.03399115	      0.02628610	      0.01885888
      0.08228928	     -4.84001085	      2.05000016	     -2.05000016	      4.84001085	     -0.98000374	      7.92004553	      3.56000596	     -3.56000596	     -7.92004553	      0.98000374	    -50.00000000	     20.00000000	     50.00000000	     20.00000000	     90.00021046	     64.50110877	     -0.00000000	      8.57895024	      0.00000000	      4.28947512	      0.00000000	      0.00000000	      0.00000000	     -0.00000000	     -0.00000000	     -0.00000000	      0.00000000	      0.00000000	      0.00000000	     -0.00000000	     -0.00000000	      0.00000000	      0.00000000	      0.00000000	     -0.00000000	    -81.85371109	     -0.00000000	     91.69935726	      0.00000000	     45.84967863	      0.02606808	      0.04095916	      0.02606808	      0.06648530	      0.02606808	      0.06301206	      0.02606808	      0.07151459	      0.02606808	      0.04905601	      0.02606808	      0.03396263	      0.02606808	      0.01886740
      0.08400428	     -4.84001085	      2.05000016	     -2.05000016	      4.84001085	     -0.98000374	      7.92004553	      3.56000596	     -3.56000596	     -7.92004553	      0.98000374	    -50.00000000	     20.00000000	     50.00000000	     20.00000000	     90.00021046	     64.36205481	     -0.00000000	      8.73625641	      0.00000000	      4.36812820	      0.00000000	      0.00000000	      0.00000000	     -0.00000000	     -0.00000000	     -0.00000000	      0.00000000	      0.00000000	      0.00000000	     -0.00000000	     -0.00000000	      0.00000000	      0.00000000	      0.00000000	     -0.00000000	    -80.31830792	     -0.00000000	     91.73395301	      0.00000000	     45.86697651	      0.02577382	      0.04094476	      0.02577382	      0.06650423	      0.02577382	      0.06305019	      0.02577382	      0.07152787	      0.02577382	      0.04901547	      0.02577382	      0.03392327	      0.02577382	      0.01887899
      0.08567911	     -4.84001085	      2.05000016	     -2.05000016	      4.84001085	     -0.98000374	      7.92004553	      3.56000596	     -3.56000596	     -7.92004553	      0.98000374	    -50.00000000	     20.00000000	     50.00000000	     20.00000000	     90.00021046	     64.22875324	     -0.00000000	      8.88986884	      0.00000000	      4.44493442	      0.00000000	      0.00000000	      0.00000000	     -0.00000000	     -0.00000000	     -0.00000000	      0.00000000	      0.00000000	      0.00000000	     -0.00000000	     -0.00000000	      0.00000000	      0.00000000	      0.00000000	     -0.00000000	    -78.87372092	     -0.00000000	     91.69082124	      0.00000000	     45.84541062	      0.02549186	      0.04093094	      0.02549186	      0.06652369	      0.02549186	      0.06308745	      0.02549186	      0.07154116	      0.02549186	      0.04897565	      0.02549186	      0.03388462	      0.02549186	      0.01889012
      0.08785238	     -4.84001085	      2.05000016	     -2.05000016	      4.84001085	     -0.98000374	      7.92004553	      3.56000596	     -3.56000596	     -7.92004553	      0.98000374	    -50.00000000	     20.00000000	     50.00000000	     20.00000000	     90.00021046	     64.05931296	     -0.00000000	      9.08899294	      0.00000000	      4.54449647	      0.00000000	      0.00000000	      0.00000000	     -0.00000000	     -0.00000000	     -0.00000000	      0.00000000	      0.00000000	      0.00000000	     -0.00000000	     -0.00000000	      0.00000000	      0.00000000	      0.00000000	     -0.00000000	    -77.06497884	     -0.00000000	     91.54076265	      0.00000000	     45.77038133	      0.02513382	      0.04091338	      0.02513382	      0.06655024	      0.02513382	      0.06313576	      0.02513382	      0.07155884	      0.02513382	      0.04892370	      0.02513382	      0.03383421	      0.02513382	      0.01890441
      0.08908128	     -4.84001085	      2.05000016	     -2.05000016	      4.84001085	     -0.98000374	      7.92004553	      3.56000596	     -3.56000596	     -7.92004553	      0.98000374	    -50.00000000	     20.00000000	     50.00000000	     20.00000000	     90.00021046	     63.96521233	     -0.00000000	      9.20141567	      0.00000000	      4.60070784	      0.00000000	      0.00000000	      0.00000000	     -0.00000000	     -0.00000000	     -0.00000000	      0.00000000	      0.00000000	      0.00000000	     -0.00000000	     -0.00000000	      0.00000000	      0.00000000	      0.00000000	     -0.00000000	    -76.08583941	     -0.00000000	     91.42076646	      0.00000000	     45.71038323	      0.02493519	      0.04090363	      0.02493519	      0.06656585	      0.02493519	      0.06316303	      0.02493519	      0.07156901	      0.02493519	      0.04889421	      0.02493519	      0.03380559	      0.02493519	      0.01891228
      0.09031017	     -4.84001085	      2.05000016	     -2.05000016	      4.84001085	     -0.98000374	      7.92004553	      3.56000596	     -3.56000596	     -7.92004553	      0.98000374	    -50.00000000	     20.00000000	     50.00000000	     20.00000000	     90.00021046	     63.87230448	     -0.00000000	      9.31367631	      0.00000000	      4.65683816	      0.00000000	      0.00000000	      0.00000000	     -0.00000000	     -0.00000000	     -0.00000000	      0.00000000	      0.00000000	      0.00000000	     -0.00000000	     -0.00000000	      0.00000000	      0.00000000	      0.00000000	     -0.00000000	    -75.12365103	     -0.00000000	     91.27764214	      0.00000000	     45.63882107	      0.02473927	      0.04089399	      0.02473927	      0.06658186	      0.02473927	      0.06319025	      0.02473927	      0.07157929	      0.02473927	      0.04886465	      0.02473927	      0.03377689	      0.02473927	      0.01892014
      0.09233046	     -4.84001085	      2.05000016	     -2.05000016	      4.84001085	     -0.98000374	      7.92004553	      3.56000596	     -3.56000596	     -7.92004553	      0.98000374	    -50.00000000	     20.00000000	     50.00000000	     20.00000000	     90.00021046	     63.72209143	     -0.00000000	      9.49781517	      0.00000000	      4.74890758	      0.00000000	      0.00000000	      0.00000000	     -0.00000000	     -0.00000000	     -0.00000000	      0.00000000	      0.00000000	      0.00000000	     -0.00000000	     -0.00000000	      0.00000000	      0.00000000	      0.00000000	     -0.00000000	    -73.59423871	     -0.00000000	     91.00616069	      0.00000000	     45.50308035	      0.02442298	      0.04087842	      0.02442298	      0.06660894	      0.02442298	      0.06323484	      0.02442298	      0.07159638	      0.02442298	      0.04881592	      0.02442298	      0.03372960	      0.02442298	      0.01893285
      0.09400106	     -4.84001085	      2.05000016	     -2.05000016	      4.84001085	     -0.98000374	      7.92004553	      3.56000596	     -3.56000596	     -7.92004553	      0.98000374	    -50.00000000	     20.00000000	     50.00000000	     20.00000000	     90.00021046	     63.60017424	     -0.00000000	      9.64964274	      0.00000000	      4.82482137	      0.00000000	      0.00000000	      0.00000000	     -0.00000000	     -0.00000000	     -0.00000000	      0.00000000	      0.00000000	      0.00000000	     -0.00000000	     -0.00000000	      0.00000000	      0.00000000	      0.00000000	     -0.00000000	    -72.36572649	     -0.00000000	     90.75428131	      0.00000000	     45.37714066	      0.02416677	      0.04086577	      0.02416677	      0.06663198	      0.02416677	      0.06327156	      0.02416677	      0.07161066	      0.02416677	      0.04877554	      0.02416677	      0.03369041	      0.02416677	      0.01894328
